<?xml version="1.0" encoding="utf-8" standalone="no"?>
<!DOCTYPE svg PUBLIC "-//W3C//DTD SVG 1.1//EN"
  "http://www.w3.org/Graphics/SVG/1.1/DTD/svg11.dtd">
<svg xmlns:xlink="http://www.w3.org/1999/xlink" width="1170pt" height="237.6pt" viewBox="0 0 1170 237.6" xmlns="http://www.w3.org/2000/svg" version="1.1">
 <metadata>
  <rdf:RDF xmlns:dc="http://purl.org/dc/elements/1.1/" xmlns:cc="http://creativecommons.org/ns#" xmlns:rdf="http://www.w3.org/1999/02/22-rdf-syntax-ns#">
   <cc:Work>
    <dc:type rdf:resource="http://purl.org/dc/dcmitype/StillImage"/>
    <dc:date>2024-10-08T18:23:36.999849</dc:date>
    <dc:format>image/svg+xml</dc:format>
    <dc:creator>
     <cc:Agent>
      <dc:title>Matplotlib v3.9.2, https://matplotlib.org/</dc:title>
     </cc:Agent>
    </dc:creator>
   </cc:Work>
  </rdf:RDF>
 </metadata>
 <defs>
  <style type="text/css">*{stroke-linejoin: round; stroke-linecap: butt}</style>
 </defs>
 <g id="figure_1">
  <g id="patch_1">
   <path d="M 0 237.6 
L 1170 237.6 
L 1170 0 
L 0 0 
z
" style="fill: #ffffff"/>
  </g>
  <g id="axes_1">
   <g id="patch_2">
    <path d="M 147.80799 148.992585 
L 241.287371 148.992585 
L 241.287371 208.489171 
L 147.80799 208.489171 
z
" clip-path="url(#p38aeff107a)" style="fill: #ffffff"/>
   </g>
   <g id="patch_3">
    <path d="M 241.287371 148.992585 
L 303.606959 148.992585 
L 303.606959 208.489171 
L 241.287371 208.489171 
z
" clip-path="url(#p38aeff107a)" style="fill: #ffffff"/>
   </g>
   <g id="patch_4">
    <path d="M 303.606959 148.992585 
L 365.926546 148.992585 
L 365.926546 208.489171 
L 303.606959 208.489171 
z
" clip-path="url(#p38aeff107a)" style="fill: #ffffff"/>
   </g>
   <g id="patch_5">
    <path d="M 365.926546 148.992585 
L 428.246134 148.992585 
L 428.246134 208.489171 
L 365.926546 208.489171 
z
" clip-path="url(#p38aeff107a)" style="fill: #ffffff"/>
   </g>
   <g id="patch_6">
    <path d="M 428.246134 148.992585 
L 490.565722 148.992585 
L 490.565722 208.489171 
L 428.246134 208.489171 
z
" clip-path="url(#p38aeff107a)" style="fill: #ffffff"/>
   </g>
   <g id="patch_7">
    <path d="M 490.565722 148.992585 
L 552.885309 148.992585 
L 552.885309 208.489171 
L 490.565722 208.489171 
z
" clip-path="url(#p38aeff107a)" style="fill: #ffffff"/>
   </g>
   <g id="patch_8">
    <path d="M 552.885309 148.992585 
L 615.204897 148.992585 
L 615.204897 208.489171 
L 552.885309 208.489171 
z
" clip-path="url(#p38aeff107a)" style="fill: #ffffff"/>
   </g>
   <g id="patch_9">
    <path d="M 615.204897 148.992585 
L 677.524485 148.992585 
L 677.524485 208.489171 
L 615.204897 208.489171 
z
" clip-path="url(#p38aeff107a)" style="fill: #ffffff"/>
   </g>
   <g id="patch_10">
    <path d="M 677.524485 148.992585 
L 739.844072 148.992585 
L 739.844072 208.489171 
L 677.524485 208.489171 
z
" clip-path="url(#p38aeff107a)" style="fill: #ffffff"/>
   </g>
   <g id="patch_11">
    <path d="M 739.844072 148.992585 
L 802.16366 148.992585 
L 802.16366 208.489171 
L 739.844072 208.489171 
z
" clip-path="url(#p38aeff107a)" style="fill: #ffffff"/>
   </g>
   <g id="patch_12">
    <path d="M 802.16366 148.992585 
L 864.483247 148.992585 
L 864.483247 208.489171 
L 802.16366 208.489171 
z
" clip-path="url(#p38aeff107a)" style="fill: #ffffff"/>
   </g>
   <g id="patch_13">
    <path d="M 864.483247 148.992585 
L 926.802835 148.992585 
L 926.802835 208.489171 
L 864.483247 208.489171 
z
" clip-path="url(#p38aeff107a)" style="fill: #ffffff"/>
   </g>
   <g id="patch_14">
    <path d="M 864.483247 148.992585 
L 926.802835 148.992585 
L 926.802835 208.489171 
L 864.483247 208.489171 
z
" clip-path="url(#p38aeff107a)" style="fill: #ffffff"/>
   </g>
   <g id="patch_15">
    <path d="M 926.802835 148.992585 
L 989.122423 148.992585 
L 989.122423 208.489171 
L 926.802835 208.489171 
z
" clip-path="url(#p38aeff107a)" style="fill: #ffffff"/>
   </g>
   <g id="patch_16">
    <path d="M 926.802835 148.992585 
L 989.122423 148.992585 
L 989.122423 208.489171 
L 926.802835 208.489171 
z
" clip-path="url(#p38aeff107a)" style="fill: #ffffff"/>
   </g>
   <g id="patch_17">
    <path d="M 989.122423 148.992585 
L 1051.44201 148.992585 
L 1051.44201 208.489171 
L 989.122423 208.489171 
z
" clip-path="url(#p38aeff107a)" style="fill: #ffffff"/>
   </g>
   <g id="patch_18">
    <path d="M 989.122423 148.992585 
L 1051.44201 148.992585 
L 1051.44201 208.489171 
L 989.122423 208.489171 
z
" clip-path="url(#p38aeff107a)" style="fill: #ffffff"/>
   </g>
   <g id="patch_19">
    <path d="M 147.80799 89.496 
L 241.287371 89.496 
L 241.287371 148.992585 
L 147.80799 148.992585 
z
" clip-path="url(#p38aeff107a)" style="fill: #ffffff"/>
   </g>
   <g id="patch_20">
    <path d="M 241.287371 89.496 
L 303.606959 89.496 
L 303.606959 148.992585 
L 241.287371 148.992585 
z
" clip-path="url(#p38aeff107a)" style="fill: #ffffff"/>
   </g>
   <g id="patch_21">
    <path d="M 303.606959 89.496 
L 365.926546 89.496 
L 365.926546 148.992585 
L 303.606959 148.992585 
z
" clip-path="url(#p38aeff107a)" style="fill: #ffffff"/>
   </g>
   <g id="patch_22">
    <path d="M 365.926546 89.496 
L 428.246134 89.496 
L 428.246134 148.992585 
L 365.926546 148.992585 
z
" clip-path="url(#p38aeff107a)" style="fill: #ffffff"/>
   </g>
   <g id="patch_23">
    <path d="M 428.246134 89.496 
L 490.565722 89.496 
L 490.565722 148.992585 
L 428.246134 148.992585 
z
" clip-path="url(#p38aeff107a)" style="fill: #ffffff"/>
   </g>
   <g id="patch_24">
    <path d="M 490.565722 89.496 
L 552.885309 89.496 
L 552.885309 148.992585 
L 490.565722 148.992585 
z
" clip-path="url(#p38aeff107a)" style="fill: #ffffff"/>
   </g>
   <g id="patch_25">
    <path d="M 552.885309 89.496 
L 615.204897 89.496 
L 615.204897 148.992585 
L 552.885309 148.992585 
z
" clip-path="url(#p38aeff107a)" style="fill: #ffffff"/>
   </g>
   <g id="patch_26">
    <path d="M 615.204897 89.496 
L 677.524485 89.496 
L 677.524485 148.992585 
L 615.204897 148.992585 
z
" clip-path="url(#p38aeff107a)" style="fill: #ffffff"/>
   </g>
   <g id="patch_27">
    <path d="M 677.524485 89.496 
L 739.844072 89.496 
L 739.844072 148.992585 
L 677.524485 148.992585 
z
" clip-path="url(#p38aeff107a)" style="fill: #ffffff"/>
   </g>
   <g id="patch_28">
    <path d="M 739.844072 89.496 
L 802.16366 89.496 
L 802.16366 148.992585 
L 739.844072 148.992585 
z
" clip-path="url(#p38aeff107a)" style="fill: #ffffff"/>
   </g>
   <g id="patch_29">
    <path d="M 802.16366 89.496 
L 864.483247 89.496 
L 864.483247 148.992585 
L 802.16366 148.992585 
z
" clip-path="url(#p38aeff107a)" style="fill: #ffffff"/>
   </g>
   <g id="patch_30">
    <path d="M 864.483247 89.496 
L 926.802835 89.496 
L 926.802835 148.992585 
L 864.483247 148.992585 
z
" clip-path="url(#p38aeff107a)" style="fill: #ffffff"/>
   </g>
   <g id="patch_31">
    <path d="M 926.802835 89.496 
L 989.122423 89.496 
L 989.122423 148.992585 
L 926.802835 148.992585 
z
" clip-path="url(#p38aeff107a)" style="fill: #ffffff"/>
   </g>
   <g id="patch_32">
    <path d="M 989.122423 89.496 
L 1051.44201 89.496 
L 1051.44201 148.992585 
L 989.122423 148.992585 
z
" clip-path="url(#p38aeff107a)" style="fill: #ffffff"/>
   </g>
   <g id="patch_33">
    <path d="M 864.483247 89.496 
L 1051.44201 89.496 
L 1051.44201 148.992585 
L 864.483247 148.992585 
z
" clip-path="url(#p38aeff107a)" style="fill: #ffffff"/>
   </g>
   <g id="patch_34">
    <path d="M 552.885309 89.496 
L 864.483247 89.496 
L 864.483247 148.992585 
L 552.885309 148.992585 
z
" clip-path="url(#p38aeff107a)" style="fill: #ffffff"/>
   </g>
   <g id="patch_35">
    <path d="M 241.287371 89.496 
L 552.885309 89.496 
L 552.885309 148.992585 
L 241.287371 148.992585 
z
" clip-path="url(#p38aeff107a)" style="fill: #ffffff"/>
   </g>
   <g id="patch_36">
    <path d="M 864.483247 148.992585 
L 926.802835 148.992585 
L 926.802835 208.489171 
L 864.483247 208.489171 
z
" clip-path="url(#p38aeff107a)" style="fill: #ffffff"/>
   </g>
   <g id="patch_37">
    <path d="M 926.802835 148.992585 
L 989.122423 148.992585 
L 989.122423 208.489171 
L 926.802835 208.489171 
z
" clip-path="url(#p38aeff107a)" style="fill: #ffffff"/>
   </g>
   <g id="patch_38">
    <path d="M 989.122423 148.992585 
L 1051.44201 148.992585 
L 1051.44201 208.489171 
L 989.122423 208.489171 
z
" clip-path="url(#p38aeff107a)" style="fill: #ffffff"/>
   </g>
   <g id="line2d_1">
    <path d="M 873.831186 89.496 
L 1042.094072 89.496 
" clip-path="url(#p38aeff107a)" style="fill: none; stroke: #000000; stroke-width: 0.2; stroke-linecap: square"/>
   </g>
   <g id="line2d_2">
    <path d="M 568.465206 89.496 
L 848.903351 89.496 
" clip-path="url(#p38aeff107a)" style="fill: none; stroke: #000000; stroke-width: 0.2; stroke-linecap: square"/>
   </g>
   <g id="line2d_3">
    <path d="M 256.867268 89.496 
L 537.305412 89.496 
" clip-path="url(#p38aeff107a)" style="fill: none; stroke: #000000; stroke-width: 0.2; stroke-linecap: square"/>
   </g>
   <g id="line2d_4">
    <path d="M 147.80799 148.992585 
L 1051.44201 148.992585 
" clip-path="url(#p38aeff107a)" style="fill: none; stroke: #000000; stroke-linecap: square"/>
   </g>
   <g id="line2d_5">
    <path d="M 147.80799 208.489171 
L 1051.44201 208.489171 
" clip-path="url(#p38aeff107a)" style="fill: none; stroke: #000000; stroke-linecap: square"/>
   </g>
   <g id="line2d_6">
    <path d="M 864.483247 148.992585 
L 864.483247 208.489171 
" clip-path="url(#p38aeff107a)" style="fill: none; stroke: #000000; stroke-linecap: square"/>
   </g>
   <g id="text_1">
    <!-- X_FinVAE_30_0_nocg_nocc -->
    <g transform="translate(157.155928 181.361191) scale(0.1 -0.1)">
     <defs>
      <path id="DejaVuSans-Bold-58" d="M 3188 2381 
L 4806 0 
L 3553 0 
L 2463 1594 
L 1381 0 
L 122 0 
L 1741 2381 
L 184 4666 
L 1441 4666 
L 2463 3163 
L 3481 4666 
L 4744 4666 
L 3188 2381 
z
" transform="scale(0.015625)"/>
      <path id="DejaVuSans-Bold-5f" d="M 3200 -916 
L 3200 -1509 
L 0 -1509 
L 0 -916 
L 3200 -916 
z
" transform="scale(0.015625)"/>
      <path id="DejaVuSans-Bold-46" d="M 588 4666 
L 3834 4666 
L 3834 3756 
L 1791 3756 
L 1791 2888 
L 3713 2888 
L 3713 1978 
L 1791 1978 
L 1791 0 
L 588 0 
L 588 4666 
z
" transform="scale(0.015625)"/>
      <path id="DejaVuSans-Bold-69" d="M 538 3500 
L 1656 3500 
L 1656 0 
L 538 0 
L 538 3500 
z
M 538 4863 
L 1656 4863 
L 1656 3950 
L 538 3950 
L 538 4863 
z
" transform="scale(0.015625)"/>
      <path id="DejaVuSans-Bold-6e" d="M 4056 2131 
L 4056 0 
L 2931 0 
L 2931 347 
L 2931 1631 
Q 2931 2084 2911 2256 
Q 2891 2428 2841 2509 
Q 2775 2619 2662 2680 
Q 2550 2741 2406 2741 
Q 2056 2741 1856 2470 
Q 1656 2200 1656 1722 
L 1656 0 
L 538 0 
L 538 3500 
L 1656 3500 
L 1656 2988 
Q 1909 3294 2193 3439 
Q 2478 3584 2822 3584 
Q 3428 3584 3742 3212 
Q 4056 2841 4056 2131 
z
" transform="scale(0.015625)"/>
      <path id="DejaVuSans-Bold-56" d="M 31 4666 
L 1241 4666 
L 2478 1222 
L 3713 4666 
L 4922 4666 
L 3194 0 
L 1759 0 
L 31 4666 
z
" transform="scale(0.015625)"/>
      <path id="DejaVuSans-Bold-41" d="M 3419 850 
L 1538 850 
L 1241 0 
L 31 0 
L 1759 4666 
L 3194 4666 
L 4922 0 
L 3713 0 
L 3419 850 
z
M 1838 1716 
L 3116 1716 
L 2478 3572 
L 1838 1716 
z
" transform="scale(0.015625)"/>
      <path id="DejaVuSans-Bold-45" d="M 588 4666 
L 3834 4666 
L 3834 3756 
L 1791 3756 
L 1791 2888 
L 3713 2888 
L 3713 1978 
L 1791 1978 
L 1791 909 
L 3903 909 
L 3903 0 
L 588 0 
L 588 4666 
z
" transform="scale(0.015625)"/>
      <path id="DejaVuSans-Bold-33" d="M 2981 2516 
Q 3453 2394 3698 2092 
Q 3944 1791 3944 1325 
Q 3944 631 3412 270 
Q 2881 -91 1863 -91 
Q 1503 -91 1142 -33 
Q 781 25 428 141 
L 428 1069 
Q 766 900 1098 814 
Q 1431 728 1753 728 
Q 2231 728 2486 893 
Q 2741 1059 2741 1369 
Q 2741 1688 2480 1852 
Q 2219 2016 1709 2016 
L 1228 2016 
L 1228 2791 
L 1734 2791 
Q 2188 2791 2409 2933 
Q 2631 3075 2631 3366 
Q 2631 3634 2415 3781 
Q 2200 3928 1806 3928 
Q 1516 3928 1219 3862 
Q 922 3797 628 3669 
L 628 4550 
Q 984 4650 1334 4700 
Q 1684 4750 2022 4750 
Q 2931 4750 3382 4451 
Q 3834 4153 3834 3553 
Q 3834 3144 3618 2883 
Q 3403 2622 2981 2516 
z
" transform="scale(0.015625)"/>
      <path id="DejaVuSans-Bold-30" d="M 2944 2338 
Q 2944 3213 2780 3570 
Q 2616 3928 2228 3928 
Q 1841 3928 1675 3570 
Q 1509 3213 1509 2338 
Q 1509 1453 1675 1090 
Q 1841 728 2228 728 
Q 2613 728 2778 1090 
Q 2944 1453 2944 2338 
z
M 4147 2328 
Q 4147 1169 3647 539 
Q 3147 -91 2228 -91 
Q 1306 -91 806 539 
Q 306 1169 306 2328 
Q 306 3491 806 4120 
Q 1306 4750 2228 4750 
Q 3147 4750 3647 4120 
Q 4147 3491 4147 2328 
z
" transform="scale(0.015625)"/>
      <path id="DejaVuSans-Bold-6f" d="M 2203 2784 
Q 1831 2784 1636 2517 
Q 1441 2250 1441 1747 
Q 1441 1244 1636 976 
Q 1831 709 2203 709 
Q 2569 709 2762 976 
Q 2956 1244 2956 1747 
Q 2956 2250 2762 2517 
Q 2569 2784 2203 2784 
z
M 2203 3584 
Q 3106 3584 3614 3096 
Q 4122 2609 4122 1747 
Q 4122 884 3614 396 
Q 3106 -91 2203 -91 
Q 1297 -91 786 396 
Q 275 884 275 1747 
Q 275 2609 786 3096 
Q 1297 3584 2203 3584 
z
" transform="scale(0.015625)"/>
      <path id="DejaVuSans-Bold-63" d="M 3366 3391 
L 3366 2478 
Q 3138 2634 2908 2709 
Q 2678 2784 2431 2784 
Q 1963 2784 1702 2511 
Q 1441 2238 1441 1747 
Q 1441 1256 1702 982 
Q 1963 709 2431 709 
Q 2694 709 2930 787 
Q 3166 866 3366 1019 
L 3366 103 
Q 3103 6 2833 -42 
Q 2563 -91 2291 -91 
Q 1344 -91 809 395 
Q 275 881 275 1747 
Q 275 2613 809 3098 
Q 1344 3584 2291 3584 
Q 2566 3584 2833 3536 
Q 3100 3488 3366 3391 
z
" transform="scale(0.015625)"/>
      <path id="DejaVuSans-Bold-67" d="M 2919 594 
Q 2688 288 2409 144 
Q 2131 0 1766 0 
Q 1125 0 706 504 
Q 288 1009 288 1791 
Q 288 2575 706 3076 
Q 1125 3578 1766 3578 
Q 2131 3578 2409 3434 
Q 2688 3291 2919 2981 
L 2919 3500 
L 4044 3500 
L 4044 353 
Q 4044 -491 3511 -936 
Q 2978 -1381 1966 -1381 
Q 1638 -1381 1331 -1331 
Q 1025 -1281 716 -1178 
L 716 -306 
Q 1009 -475 1290 -558 
Q 1572 -641 1856 -641 
Q 2406 -641 2662 -400 
Q 2919 -159 2919 353 
L 2919 594 
z
M 2181 2772 
Q 1834 2772 1640 2515 
Q 1447 2259 1447 1791 
Q 1447 1309 1634 1061 
Q 1822 813 2181 813 
Q 2531 813 2725 1069 
Q 2919 1325 2919 1791 
Q 2919 2259 2725 2515 
Q 2531 2772 2181 2772 
z
" transform="scale(0.015625)"/>
     </defs>
     <use xlink:href="#DejaVuSans-Bold-58"/>
     <use xlink:href="#DejaVuSans-Bold-5f" x="77.099609"/>
     <use xlink:href="#DejaVuSans-Bold-46" x="127.099609"/>
     <use xlink:href="#DejaVuSans-Bold-69" x="195.410156"/>
     <use xlink:href="#DejaVuSans-Bold-6e" x="229.6875"/>
     <use xlink:href="#DejaVuSans-Bold-56" x="300.878906"/>
     <use xlink:href="#DejaVuSans-Bold-41" x="371.521484"/>
     <use xlink:href="#DejaVuSans-Bold-45" x="448.914062"/>
     <use xlink:href="#DejaVuSans-Bold-5f" x="517.224609"/>
     <use xlink:href="#DejaVuSans-Bold-33" x="567.224609"/>
     <use xlink:href="#DejaVuSans-Bold-30" x="636.804688"/>
     <use xlink:href="#DejaVuSans-Bold-5f" x="706.384766"/>
     <use xlink:href="#DejaVuSans-Bold-30" x="756.384766"/>
     <use xlink:href="#DejaVuSans-Bold-5f" x="825.964844"/>
     <use xlink:href="#DejaVuSans-Bold-6e" x="875.964844"/>
     <use xlink:href="#DejaVuSans-Bold-6f" x="947.15625"/>
     <use xlink:href="#DejaVuSans-Bold-63" x="1015.857422"/>
     <use xlink:href="#DejaVuSans-Bold-67" x="1075.134766"/>
     <use xlink:href="#DejaVuSans-Bold-5f" x="1146.716797"/>
     <use xlink:href="#DejaVuSans-Bold-6e" x="1196.716797"/>
     <use xlink:href="#DejaVuSans-Bold-6f" x="1267.908203"/>
     <use xlink:href="#DejaVuSans-Bold-63" x="1336.609375"/>
     <use xlink:href="#DejaVuSans-Bold-63" x="1395.886719"/>
    </g>
   </g>
   <g id="text_2">
    <g id="patch_39">
     <path d="M 272.447165 192.373691 
C 276.062629 192.373691 279.5305 190.937251 282.087019 188.380732 
C 284.643538 185.824213 286.079977 182.356342 286.079977 178.740878 
C 286.079977 175.125414 284.643538 171.657543 282.087019 169.101024 
C 279.5305 166.544505 276.062629 165.108066 272.447165 165.108066 
C 268.831701 165.108066 265.36383 166.544505 262.807311 169.101024 
C 260.250792 171.657543 258.814352 175.125414 258.814352 178.740878 
C 258.814352 182.356342 260.250792 185.824213 262.807311 188.380732 
C 265.36383 190.937251 268.831701 192.373691 272.447165 192.373691 
L 272.447165 192.373691 
z
" style="fill: none"/>
    </g>
    <!-- 0.48 -->
    <g style="fill: #ffffff" transform="translate(261.314352 181.500253) scale(0.1 -0.1)">
     <defs>
      <path id="DejaVuSans-30" d="M 2034 4250 
Q 1547 4250 1301 3770 
Q 1056 3291 1056 2328 
Q 1056 1369 1301 889 
Q 1547 409 2034 409 
Q 2525 409 2770 889 
Q 3016 1369 3016 2328 
Q 3016 3291 2770 3770 
Q 2525 4250 2034 4250 
z
M 2034 4750 
Q 2819 4750 3233 4129 
Q 3647 3509 3647 2328 
Q 3647 1150 3233 529 
Q 2819 -91 2034 -91 
Q 1250 -91 836 529 
Q 422 1150 422 2328 
Q 422 3509 836 4129 
Q 1250 4750 2034 4750 
z
" transform="scale(0.015625)"/>
      <path id="DejaVuSans-2e" d="M 684 794 
L 1344 794 
L 1344 0 
L 684 0 
L 684 794 
z
" transform="scale(0.015625)"/>
      <path id="DejaVuSans-34" d="M 2419 4116 
L 825 1625 
L 2419 1625 
L 2419 4116 
z
M 2253 4666 
L 3047 4666 
L 3047 1625 
L 3713 1625 
L 3713 1100 
L 3047 1100 
L 3047 0 
L 2419 0 
L 2419 1100 
L 313 1100 
L 313 1709 
L 2253 4666 
z
" transform="scale(0.015625)"/>
      <path id="DejaVuSans-38" d="M 2034 2216 
Q 1584 2216 1326 1975 
Q 1069 1734 1069 1313 
Q 1069 891 1326 650 
Q 1584 409 2034 409 
Q 2484 409 2743 651 
Q 3003 894 3003 1313 
Q 3003 1734 2745 1975 
Q 2488 2216 2034 2216 
z
M 1403 2484 
Q 997 2584 770 2862 
Q 544 3141 544 3541 
Q 544 4100 942 4425 
Q 1341 4750 2034 4750 
Q 2731 4750 3128 4425 
Q 3525 4100 3525 3541 
Q 3525 3141 3298 2862 
Q 3072 2584 2669 2484 
Q 3125 2378 3379 2068 
Q 3634 1759 3634 1313 
Q 3634 634 3220 271 
Q 2806 -91 2034 -91 
Q 1263 -91 848 271 
Q 434 634 434 1313 
Q 434 1759 690 2068 
Q 947 2378 1403 2484 
z
M 1172 3481 
Q 1172 3119 1398 2916 
Q 1625 2713 2034 2713 
Q 2441 2713 2670 2916 
Q 2900 3119 2900 3481 
Q 2900 3844 2670 4047 
Q 2441 4250 2034 4250 
Q 1625 4250 1398 4047 
Q 1172 3844 1172 3481 
z
" transform="scale(0.015625)"/>
     </defs>
     <use xlink:href="#DejaVuSans-30"/>
     <use xlink:href="#DejaVuSans-2e" x="63.623047"/>
     <use xlink:href="#DejaVuSans-34" x="95.410156"/>
     <use xlink:href="#DejaVuSans-38" x="159.033203"/>
    </g>
   </g>
   <g id="text_3">
    <g id="patch_40">
     <path d="M 334.766753 192.373691 
C 338.382217 192.373691 341.850088 190.937251 344.406607 188.380732 
C 346.963126 185.824213 348.399565 182.356342 348.399565 178.740878 
C 348.399565 175.125414 346.963126 171.657543 344.406607 169.101024 
C 341.850088 166.544505 338.382217 165.108066 334.766753 165.108066 
C 331.151288 165.108066 327.683418 166.544505 325.126898 169.101024 
C 322.570379 171.657543 321.13394 175.125414 321.13394 178.740878 
C 321.13394 182.356342 322.570379 185.824213 325.126898 188.380732 
C 327.683418 190.937251 331.151288 192.373691 334.766753 192.373691 
L 334.766753 192.373691 
z
" style="fill: none"/>
    </g>
    <!-- 0.65 -->
    <g style="fill: #ffffff" transform="translate(323.63394 181.500253) scale(0.1 -0.1)">
     <defs>
      <path id="DejaVuSans-36" d="M 2113 2584 
Q 1688 2584 1439 2293 
Q 1191 2003 1191 1497 
Q 1191 994 1439 701 
Q 1688 409 2113 409 
Q 2538 409 2786 701 
Q 3034 994 3034 1497 
Q 3034 2003 2786 2293 
Q 2538 2584 2113 2584 
z
M 3366 4563 
L 3366 3988 
Q 3128 4100 2886 4159 
Q 2644 4219 2406 4219 
Q 1781 4219 1451 3797 
Q 1122 3375 1075 2522 
Q 1259 2794 1537 2939 
Q 1816 3084 2150 3084 
Q 2853 3084 3261 2657 
Q 3669 2231 3669 1497 
Q 3669 778 3244 343 
Q 2819 -91 2113 -91 
Q 1303 -91 875 529 
Q 447 1150 447 2328 
Q 447 3434 972 4092 
Q 1497 4750 2381 4750 
Q 2619 4750 2861 4703 
Q 3103 4656 3366 4563 
z
" transform="scale(0.015625)"/>
      <path id="DejaVuSans-35" d="M 691 4666 
L 3169 4666 
L 3169 4134 
L 1269 4134 
L 1269 2991 
Q 1406 3038 1543 3061 
Q 1681 3084 1819 3084 
Q 2600 3084 3056 2656 
Q 3513 2228 3513 1497 
Q 3513 744 3044 326 
Q 2575 -91 1722 -91 
Q 1428 -91 1123 -41 
Q 819 9 494 109 
L 494 744 
Q 775 591 1075 516 
Q 1375 441 1709 441 
Q 2250 441 2565 725 
Q 2881 1009 2881 1497 
Q 2881 1984 2565 2268 
Q 2250 2553 1709 2553 
Q 1456 2553 1204 2497 
Q 953 2441 691 2322 
L 691 4666 
z
" transform="scale(0.015625)"/>
     </defs>
     <use xlink:href="#DejaVuSans-30"/>
     <use xlink:href="#DejaVuSans-2e" x="63.623047"/>
     <use xlink:href="#DejaVuSans-36" x="95.410156"/>
     <use xlink:href="#DejaVuSans-35" x="159.033203"/>
    </g>
   </g>
   <g id="text_4">
    <g id="patch_41">
     <path d="M 397.08634 192.373691 
C 400.701804 192.373691 404.169675 190.937251 406.726194 188.380732 
C 409.282714 185.824213 410.719153 182.356342 410.719153 178.740878 
C 410.719153 175.125414 409.282714 171.657543 406.726194 169.101024 
C 404.169675 166.544505 400.701804 165.108066 397.08634 165.108066 
C 393.470876 165.108066 390.003005 166.544505 387.446486 169.101024 
C 384.889967 171.657543 383.453528 175.125414 383.453528 178.740878 
C 383.453528 182.356342 384.889967 185.824213 387.446486 188.380732 
C 390.003005 190.937251 393.470876 192.373691 397.08634 192.373691 
L 397.08634 192.373691 
z
" style="fill: none"/>
    </g>
    <!-- 0.07 -->
    <g style="fill: #ffffff" transform="translate(385.953528 181.500253) scale(0.1 -0.1)">
     <defs>
      <path id="DejaVuSans-37" d="M 525 4666 
L 3525 4666 
L 3525 4397 
L 1831 0 
L 1172 0 
L 2766 4134 
L 525 4134 
L 525 4666 
z
" transform="scale(0.015625)"/>
     </defs>
     <use xlink:href="#DejaVuSans-30"/>
     <use xlink:href="#DejaVuSans-2e" x="63.623047"/>
     <use xlink:href="#DejaVuSans-30" x="95.410156"/>
     <use xlink:href="#DejaVuSans-37" x="159.033203"/>
    </g>
   </g>
   <g id="text_5">
    <g id="patch_42">
     <path d="M 459.405928 192.373691 
C 463.021392 192.373691 466.489263 190.937251 469.045782 188.380732 
C 471.602301 185.824213 473.03874 182.356342 473.03874 178.740878 
C 473.03874 175.125414 471.602301 171.657543 469.045782 169.101024 
C 466.489263 166.544505 463.021392 165.108066 459.405928 165.108066 
C 455.790464 165.108066 452.322593 166.544505 449.766074 169.101024 
C 447.209554 171.657543 445.773115 175.125414 445.773115 178.740878 
C 445.773115 182.356342 447.209554 185.824213 449.766074 188.380732 
C 452.322593 190.937251 455.790464 192.373691 459.405928 192.373691 
L 459.405928 192.373691 
z
" style="fill: none"/>
    </g>
    <!-- 0.47 -->
    <g style="fill: #ffffff" transform="translate(448.273115 181.500253) scale(0.1 -0.1)">
     <use xlink:href="#DejaVuSans-30"/>
     <use xlink:href="#DejaVuSans-2e" x="63.623047"/>
     <use xlink:href="#DejaVuSans-34" x="95.410156"/>
     <use xlink:href="#DejaVuSans-37" x="159.033203"/>
    </g>
   </g>
   <g id="text_6">
    <g id="patch_43">
     <path d="M 521.725515 192.373691 
C 525.34098 192.373691 528.80885 190.937251 531.36537 188.380732 
C 533.921889 185.824213 535.358328 182.356342 535.358328 178.740878 
C 535.358328 175.125414 533.921889 171.657543 531.36537 169.101024 
C 528.80885 166.544505 525.34098 165.108066 521.725515 165.108066 
C 518.110051 165.108066 514.642181 166.544505 512.085661 169.101024 
C 509.529142 171.657543 508.092703 175.125414 508.092703 178.740878 
C 508.092703 182.356342 509.529142 185.824213 512.085661 188.380732 
C 514.642181 190.937251 518.110051 192.373691 521.725515 192.373691 
L 521.725515 192.373691 
z
" style="fill: none"/>
    </g>
    <!-- 1.00 -->
    <g style="fill: #ffffff" transform="translate(510.592703 181.500253) scale(0.1 -0.1)">
     <defs>
      <path id="DejaVuSans-31" d="M 794 531 
L 1825 531 
L 1825 4091 
L 703 3866 
L 703 4441 
L 1819 4666 
L 2450 4666 
L 2450 531 
L 3481 531 
L 3481 0 
L 794 0 
L 794 531 
z
" transform="scale(0.015625)"/>
     </defs>
     <use xlink:href="#DejaVuSans-31"/>
     <use xlink:href="#DejaVuSans-2e" x="63.623047"/>
     <use xlink:href="#DejaVuSans-30" x="95.410156"/>
     <use xlink:href="#DejaVuSans-30" x="159.033203"/>
    </g>
   </g>
   <g id="text_7">
    <g id="patch_44">
     <path d="M 584.045103 192.373691 
C 587.660567 192.373691 591.128438 190.937251 593.684957 188.380732 
C 596.241476 185.824213 597.677916 182.356342 597.677916 178.740878 
C 597.677916 175.125414 596.241476 171.657543 593.684957 169.101024 
C 591.128438 166.544505 587.660567 165.108066 584.045103 165.108066 
C 580.429639 165.108066 576.961768 166.544505 574.405249 169.101024 
C 571.84873 171.657543 570.412291 175.125414 570.412291 178.740878 
C 570.412291 182.356342 571.84873 185.824213 574.405249 188.380732 
C 576.961768 190.937251 580.429639 192.373691 584.045103 192.373691 
L 584.045103 192.373691 
z
" style="fill: none"/>
    </g>
    <!-- 0.88 -->
    <g style="fill: #ffffff" transform="translate(572.912291 181.500253) scale(0.1 -0.1)">
     <use xlink:href="#DejaVuSans-30"/>
     <use xlink:href="#DejaVuSans-2e" x="63.623047"/>
     <use xlink:href="#DejaVuSans-38" x="95.410156"/>
     <use xlink:href="#DejaVuSans-38" x="159.033203"/>
    </g>
   </g>
   <g id="text_8">
    <g id="patch_45">
     <path d="M 646.364691 192.373691 
C 649.980155 192.373691 653.448026 190.937251 656.004545 188.380732 
C 658.561064 185.824213 659.997503 182.356342 659.997503 178.740878 
C 659.997503 175.125414 658.561064 171.657543 656.004545 169.101024 
C 653.448026 166.544505 649.980155 165.108066 646.364691 165.108066 
C 642.749227 165.108066 639.281356 166.544505 636.724837 169.101024 
C 634.168317 171.657543 632.731878 175.125414 632.731878 178.740878 
C 632.731878 182.356342 634.168317 185.824213 636.724837 188.380732 
C 639.281356 190.937251 642.749227 192.373691 646.364691 192.373691 
L 646.364691 192.373691 
z
" style="fill: none"/>
    </g>
    <!-- 0.09 -->
    <g style="fill: #ffffff" transform="translate(635.231878 181.500253) scale(0.1 -0.1)">
     <defs>
      <path id="DejaVuSans-39" d="M 703 97 
L 703 672 
Q 941 559 1184 500 
Q 1428 441 1663 441 
Q 2288 441 2617 861 
Q 2947 1281 2994 2138 
Q 2813 1869 2534 1725 
Q 2256 1581 1919 1581 
Q 1219 1581 811 2004 
Q 403 2428 403 3163 
Q 403 3881 828 4315 
Q 1253 4750 1959 4750 
Q 2769 4750 3195 4129 
Q 3622 3509 3622 2328 
Q 3622 1225 3098 567 
Q 2575 -91 1691 -91 
Q 1453 -91 1209 -44 
Q 966 3 703 97 
z
M 1959 2075 
Q 2384 2075 2632 2365 
Q 2881 2656 2881 3163 
Q 2881 3666 2632 3958 
Q 2384 4250 1959 4250 
Q 1534 4250 1286 3958 
Q 1038 3666 1038 3163 
Q 1038 2656 1286 2365 
Q 1534 2075 1959 2075 
z
" transform="scale(0.015625)"/>
     </defs>
     <use xlink:href="#DejaVuSans-30"/>
     <use xlink:href="#DejaVuSans-2e" x="63.623047"/>
     <use xlink:href="#DejaVuSans-30" x="95.410156"/>
     <use xlink:href="#DejaVuSans-39" x="159.033203"/>
    </g>
   </g>
   <g id="text_9">
    <g id="patch_46">
     <path d="M 708.684278 192.373691 
C 712.299742 192.373691 715.767613 190.937251 718.324133 188.380732 
C 720.880652 185.824213 722.317091 182.356342 722.317091 178.740878 
C 722.317091 175.125414 720.880652 171.657543 718.324133 169.101024 
C 715.767613 166.544505 712.299742 165.108066 708.684278 165.108066 
C 705.068814 165.108066 701.600943 166.544505 699.044424 169.101024 
C 696.487905 171.657543 695.051466 175.125414 695.051466 178.740878 
C 695.051466 182.356342 696.487905 185.824213 699.044424 188.380732 
C 701.600943 190.937251 705.068814 192.373691 708.684278 192.373691 
L 708.684278 192.373691 
z
" style="fill: none"/>
    </g>
    <!-- 0.66 -->
    <g style="fill: #ffffff" transform="translate(697.551466 181.500253) scale(0.1 -0.1)">
     <use xlink:href="#DejaVuSans-30"/>
     <use xlink:href="#DejaVuSans-2e" x="63.623047"/>
     <use xlink:href="#DejaVuSans-36" x="95.410156"/>
     <use xlink:href="#DejaVuSans-36" x="159.033203"/>
    </g>
   </g>
   <g id="text_10">
    <g id="patch_47">
     <path d="M 771.003866 192.373691 
C 774.61933 192.373691 778.087201 190.937251 780.64372 188.380732 
C 783.200239 185.824213 784.636678 182.356342 784.636678 178.740878 
C 784.636678 175.125414 783.200239 171.657543 780.64372 169.101024 
C 778.087201 166.544505 774.61933 165.108066 771.003866 165.108066 
C 767.388402 165.108066 763.920531 166.544505 761.364012 169.101024 
C 758.807493 171.657543 757.371053 175.125414 757.371053 178.740878 
C 757.371053 182.356342 758.807493 185.824213 761.364012 188.380732 
C 763.920531 190.937251 767.388402 192.373691 771.003866 192.373691 
L 771.003866 192.373691 
z
" style="fill: none"/>
    </g>
    <!-- 0.70 -->
    <g style="fill: #ffffff" transform="translate(759.871053 181.500253) scale(0.1 -0.1)">
     <use xlink:href="#DejaVuSans-30"/>
     <use xlink:href="#DejaVuSans-2e" x="63.623047"/>
     <use xlink:href="#DejaVuSans-37" x="95.410156"/>
     <use xlink:href="#DejaVuSans-30" x="159.033203"/>
    </g>
   </g>
   <g id="text_11">
    <g id="patch_48">
     <path d="M 833.323454 192.373691 
C 836.938918 192.373691 840.406789 190.937251 842.963308 188.380732 
C 845.519827 185.824213 846.956266 182.356342 846.956266 178.740878 
C 846.956266 175.125414 845.519827 171.657543 842.963308 169.101024 
C 840.406789 166.544505 836.938918 165.108066 833.323454 165.108066 
C 829.707989 165.108066 826.240119 166.544505 823.683599 169.101024 
C 821.12708 171.657543 819.690641 175.125414 819.690641 178.740878 
C 819.690641 182.356342 821.12708 185.824213 823.683599 188.380732 
C 826.240119 190.937251 829.707989 192.373691 833.323454 192.373691 
L 833.323454 192.373691 
z
" style="fill: none"/>
    </g>
    <!-- 0.21 -->
    <g style="fill: #ffffff" transform="translate(822.190641 181.500253) scale(0.1 -0.1)">
     <defs>
      <path id="DejaVuSans-32" d="M 1228 531 
L 3431 531 
L 3431 0 
L 469 0 
L 469 531 
Q 828 903 1448 1529 
Q 2069 2156 2228 2338 
Q 2531 2678 2651 2914 
Q 2772 3150 2772 3378 
Q 2772 3750 2511 3984 
Q 2250 4219 1831 4219 
Q 1534 4219 1204 4116 
Q 875 4013 500 3803 
L 500 4441 
Q 881 4594 1212 4672 
Q 1544 4750 1819 4750 
Q 2544 4750 2975 4387 
Q 3406 4025 3406 3419 
Q 3406 3131 3298 2873 
Q 3191 2616 2906 2266 
Q 2828 2175 2409 1742 
Q 1991 1309 1228 531 
z
" transform="scale(0.015625)"/>
     </defs>
     <use xlink:href="#DejaVuSans-30"/>
     <use xlink:href="#DejaVuSans-2e" x="63.623047"/>
     <use xlink:href="#DejaVuSans-32" x="95.410156"/>
     <use xlink:href="#DejaVuSans-31" x="159.033203"/>
    </g>
   </g>
   <g id="text_12">
    <!-- Method -->
    <g transform="translate(157.155928 122.003668) scale(0.1 -0.1)">
     <defs>
      <path id="DejaVuSans-Bold-4d" d="M 588 4666 
L 2119 4666 
L 3181 2169 
L 4250 4666 
L 5778 4666 
L 5778 0 
L 4641 0 
L 4641 3413 
L 3566 897 
L 2803 897 
L 1728 3413 
L 1728 0 
L 588 0 
L 588 4666 
z
" transform="scale(0.015625)"/>
      <path id="DejaVuSans-Bold-65" d="M 4031 1759 
L 4031 1441 
L 1416 1441 
Q 1456 1047 1700 850 
Q 1944 653 2381 653 
Q 2734 653 3104 758 
Q 3475 863 3866 1075 
L 3866 213 
Q 3469 63 3072 -14 
Q 2675 -91 2278 -91 
Q 1328 -91 801 392 
Q 275 875 275 1747 
Q 275 2603 792 3093 
Q 1309 3584 2216 3584 
Q 3041 3584 3536 3087 
Q 4031 2591 4031 1759 
z
M 2881 2131 
Q 2881 2450 2695 2645 
Q 2509 2841 2209 2841 
Q 1884 2841 1681 2658 
Q 1478 2475 1428 2131 
L 2881 2131 
z
" transform="scale(0.015625)"/>
      <path id="DejaVuSans-Bold-74" d="M 1759 4494 
L 1759 3500 
L 2913 3500 
L 2913 2700 
L 1759 2700 
L 1759 1216 
Q 1759 972 1856 886 
Q 1953 800 2241 800 
L 2816 800 
L 2816 0 
L 1856 0 
Q 1194 0 917 276 
Q 641 553 641 1216 
L 641 2700 
L 84 2700 
L 84 3500 
L 641 3500 
L 641 4494 
L 1759 4494 
z
" transform="scale(0.015625)"/>
      <path id="DejaVuSans-Bold-68" d="M 4056 2131 
L 4056 0 
L 2931 0 
L 2931 347 
L 2931 1625 
Q 2931 2084 2911 2256 
Q 2891 2428 2841 2509 
Q 2775 2619 2662 2680 
Q 2550 2741 2406 2741 
Q 2056 2741 1856 2470 
Q 1656 2200 1656 1722 
L 1656 0 
L 538 0 
L 538 4863 
L 1656 4863 
L 1656 2988 
Q 1909 3294 2193 3439 
Q 2478 3584 2822 3584 
Q 3428 3584 3742 3212 
Q 4056 2841 4056 2131 
z
" transform="scale(0.015625)"/>
      <path id="DejaVuSans-Bold-64" d="M 2919 2988 
L 2919 4863 
L 4044 4863 
L 4044 0 
L 2919 0 
L 2919 506 
Q 2688 197 2409 53 
Q 2131 -91 1766 -91 
Q 1119 -91 703 423 
Q 288 938 288 1747 
Q 288 2556 703 3070 
Q 1119 3584 1766 3584 
Q 2128 3584 2408 3439 
Q 2688 3294 2919 2988 
z
M 2181 722 
Q 2541 722 2730 984 
Q 2919 1247 2919 1747 
Q 2919 2247 2730 2509 
Q 2541 2772 2181 2772 
Q 1825 2772 1636 2509 
Q 1447 2247 1447 1747 
Q 1447 1247 1636 984 
Q 1825 722 2181 722 
z
" transform="scale(0.015625)"/>
     </defs>
     <use xlink:href="#DejaVuSans-Bold-4d"/>
     <use xlink:href="#DejaVuSans-Bold-65" x="99.511719"/>
     <use xlink:href="#DejaVuSans-Bold-74" x="167.333984"/>
     <use xlink:href="#DejaVuSans-Bold-68" x="215.136719"/>
     <use xlink:href="#DejaVuSans-Bold-6f" x="286.328125"/>
     <use xlink:href="#DejaVuSans-Bold-64" x="355.029297"/>
    </g>
   </g>
   <g id="text_13">
    <!-- Isolated -->
    <g transform="translate(252.64404 116.404761) scale(0.1 -0.1)">
     <defs>
      <path id="DejaVuSans-49" d="M 628 4666 
L 1259 4666 
L 1259 0 
L 628 0 
L 628 4666 
z
" transform="scale(0.015625)"/>
      <path id="DejaVuSans-73" d="M 2834 3397 
L 2834 2853 
Q 2591 2978 2328 3040 
Q 2066 3103 1784 3103 
Q 1356 3103 1142 2972 
Q 928 2841 928 2578 
Q 928 2378 1081 2264 
Q 1234 2150 1697 2047 
L 1894 2003 
Q 2506 1872 2764 1633 
Q 3022 1394 3022 966 
Q 3022 478 2636 193 
Q 2250 -91 1575 -91 
Q 1294 -91 989 -36 
Q 684 19 347 128 
L 347 722 
Q 666 556 975 473 
Q 1284 391 1588 391 
Q 1994 391 2212 530 
Q 2431 669 2431 922 
Q 2431 1156 2273 1281 
Q 2116 1406 1581 1522 
L 1381 1569 
Q 847 1681 609 1914 
Q 372 2147 372 2553 
Q 372 3047 722 3315 
Q 1072 3584 1716 3584 
Q 2034 3584 2315 3537 
Q 2597 3491 2834 3397 
z
" transform="scale(0.015625)"/>
      <path id="DejaVuSans-6f" d="M 1959 3097 
Q 1497 3097 1228 2736 
Q 959 2375 959 1747 
Q 959 1119 1226 758 
Q 1494 397 1959 397 
Q 2419 397 2687 759 
Q 2956 1122 2956 1747 
Q 2956 2369 2687 2733 
Q 2419 3097 1959 3097 
z
M 1959 3584 
Q 2709 3584 3137 3096 
Q 3566 2609 3566 1747 
Q 3566 888 3137 398 
Q 2709 -91 1959 -91 
Q 1206 -91 779 398 
Q 353 888 353 1747 
Q 353 2609 779 3096 
Q 1206 3584 1959 3584 
z
" transform="scale(0.015625)"/>
      <path id="DejaVuSans-6c" d="M 603 4863 
L 1178 4863 
L 1178 0 
L 603 0 
L 603 4863 
z
" transform="scale(0.015625)"/>
      <path id="DejaVuSans-61" d="M 2194 1759 
Q 1497 1759 1228 1600 
Q 959 1441 959 1056 
Q 959 750 1161 570 
Q 1363 391 1709 391 
Q 2188 391 2477 730 
Q 2766 1069 2766 1631 
L 2766 1759 
L 2194 1759 
z
M 3341 1997 
L 3341 0 
L 2766 0 
L 2766 531 
Q 2569 213 2275 61 
Q 1981 -91 1556 -91 
Q 1019 -91 701 211 
Q 384 513 384 1019 
Q 384 1609 779 1909 
Q 1175 2209 1959 2209 
L 2766 2209 
L 2766 2266 
Q 2766 2663 2505 2880 
Q 2244 3097 1772 3097 
Q 1472 3097 1187 3025 
Q 903 2953 641 2809 
L 641 3341 
Q 956 3463 1253 3523 
Q 1550 3584 1831 3584 
Q 2591 3584 2966 3190 
Q 3341 2797 3341 1997 
z
" transform="scale(0.015625)"/>
      <path id="DejaVuSans-74" d="M 1172 4494 
L 1172 3500 
L 2356 3500 
L 2356 3053 
L 1172 3053 
L 1172 1153 
Q 1172 725 1289 603 
Q 1406 481 1766 481 
L 2356 481 
L 2356 0 
L 1766 0 
Q 1100 0 847 248 
Q 594 497 594 1153 
L 594 3053 
L 172 3053 
L 172 3500 
L 594 3500 
L 594 4494 
L 1172 4494 
z
" transform="scale(0.015625)"/>
      <path id="DejaVuSans-65" d="M 3597 1894 
L 3597 1613 
L 953 1613 
Q 991 1019 1311 708 
Q 1631 397 2203 397 
Q 2534 397 2845 478 
Q 3156 559 3463 722 
L 3463 178 
Q 3153 47 2828 -22 
Q 2503 -91 2169 -91 
Q 1331 -91 842 396 
Q 353 884 353 1716 
Q 353 2575 817 3079 
Q 1281 3584 2069 3584 
Q 2775 3584 3186 3129 
Q 3597 2675 3597 1894 
z
M 3022 2063 
Q 3016 2534 2758 2815 
Q 2500 3097 2075 3097 
Q 1594 3097 1305 2825 
Q 1016 2553 972 2059 
L 3022 2063 
z
" transform="scale(0.015625)"/>
      <path id="DejaVuSans-64" d="M 2906 2969 
L 2906 4863 
L 3481 4863 
L 3481 0 
L 2906 0 
L 2906 525 
Q 2725 213 2448 61 
Q 2172 -91 1784 -91 
Q 1150 -91 751 415 
Q 353 922 353 1747 
Q 353 2572 751 3078 
Q 1150 3584 1784 3584 
Q 2172 3584 2448 3432 
Q 2725 3281 2906 2969 
z
M 947 1747 
Q 947 1113 1208 752 
Q 1469 391 1925 391 
Q 2381 391 2643 752 
Q 2906 1113 2906 1747 
Q 2906 2381 2643 2742 
Q 2381 3103 1925 3103 
Q 1469 3103 1208 2742 
Q 947 2381 947 1747 
z
" transform="scale(0.015625)"/>
     </defs>
     <use xlink:href="#DejaVuSans-49"/>
     <use xlink:href="#DejaVuSans-73" x="29.492188"/>
     <use xlink:href="#DejaVuSans-6f" x="81.591797"/>
     <use xlink:href="#DejaVuSans-6c" x="142.773438"/>
     <use xlink:href="#DejaVuSans-61" x="170.556641"/>
     <use xlink:href="#DejaVuSans-74" x="231.835938"/>
     <use xlink:href="#DejaVuSans-65" x="271.044922"/>
     <use xlink:href="#DejaVuSans-64" x="332.568359"/>
    </g>
    <!-- labels -->
    <g transform="translate(257.749509 127.602574) scale(0.1 -0.1)">
     <defs>
      <path id="DejaVuSans-62" d="M 3116 1747 
Q 3116 2381 2855 2742 
Q 2594 3103 2138 3103 
Q 1681 3103 1420 2742 
Q 1159 2381 1159 1747 
Q 1159 1113 1420 752 
Q 1681 391 2138 391 
Q 2594 391 2855 752 
Q 3116 1113 3116 1747 
z
M 1159 2969 
Q 1341 3281 1617 3432 
Q 1894 3584 2278 3584 
Q 2916 3584 3314 3078 
Q 3713 2572 3713 1747 
Q 3713 922 3314 415 
Q 2916 -91 2278 -91 
Q 1894 -91 1617 61 
Q 1341 213 1159 525 
L 1159 0 
L 581 0 
L 581 4863 
L 1159 4863 
L 1159 2969 
z
" transform="scale(0.015625)"/>
     </defs>
     <use xlink:href="#DejaVuSans-6c"/>
     <use xlink:href="#DejaVuSans-61" x="27.783203"/>
     <use xlink:href="#DejaVuSans-62" x="89.0625"/>
     <use xlink:href="#DejaVuSans-65" x="152.539062"/>
     <use xlink:href="#DejaVuSans-6c" x="214.0625"/>
     <use xlink:href="#DejaVuSans-73" x="241.845703"/>
    </g>
   </g>
   <g id="text_14">
    <!-- KMeans -->
    <g transform="translate(315.259721 116.404761) scale(0.1 -0.1)">
     <defs>
      <path id="DejaVuSans-4b" d="M 628 4666 
L 1259 4666 
L 1259 2694 
L 3353 4666 
L 4166 4666 
L 1850 2491 
L 4331 0 
L 3500 0 
L 1259 2247 
L 1259 0 
L 628 0 
L 628 4666 
z
" transform="scale(0.015625)"/>
      <path id="DejaVuSans-4d" d="M 628 4666 
L 1569 4666 
L 2759 1491 
L 3956 4666 
L 4897 4666 
L 4897 0 
L 4281 0 
L 4281 4097 
L 3078 897 
L 2444 897 
L 1241 4097 
L 1241 0 
L 628 0 
L 628 4666 
z
" transform="scale(0.015625)"/>
      <path id="DejaVuSans-6e" d="M 3513 2113 
L 3513 0 
L 2938 0 
L 2938 2094 
Q 2938 2591 2744 2837 
Q 2550 3084 2163 3084 
Q 1697 3084 1428 2787 
Q 1159 2491 1159 1978 
L 1159 0 
L 581 0 
L 581 3500 
L 1159 3500 
L 1159 2956 
Q 1366 3272 1645 3428 
Q 1925 3584 2291 3584 
Q 2894 3584 3203 3211 
Q 3513 2838 3513 2113 
z
" transform="scale(0.015625)"/>
     </defs>
     <use xlink:href="#DejaVuSans-4b"/>
     <use xlink:href="#DejaVuSans-4d" x="65.576172"/>
     <use xlink:href="#DejaVuSans-65" x="151.855469"/>
     <use xlink:href="#DejaVuSans-61" x="213.378906"/>
     <use xlink:href="#DejaVuSans-6e" x="274.658203"/>
     <use xlink:href="#DejaVuSans-73" x="338.037109"/>
    </g>
    <!-- NMI -->
    <g transform="translate(325.237065 127.602574) scale(0.1 -0.1)">
     <defs>
      <path id="DejaVuSans-4e" d="M 628 4666 
L 1478 4666 
L 3547 763 
L 3547 4666 
L 4159 4666 
L 4159 0 
L 3309 0 
L 1241 3903 
L 1241 0 
L 628 0 
L 628 4666 
z
" transform="scale(0.015625)"/>
     </defs>
     <use xlink:href="#DejaVuSans-4e"/>
     <use xlink:href="#DejaVuSans-4d" x="74.804688"/>
     <use xlink:href="#DejaVuSans-49" x="161.083984"/>
    </g>
   </g>
   <g id="text_15">
    <!-- KMeans -->
    <g transform="translate(377.579309 116.404761) scale(0.1 -0.1)">
     <use xlink:href="#DejaVuSans-4b"/>
     <use xlink:href="#DejaVuSans-4d" x="65.576172"/>
     <use xlink:href="#DejaVuSans-65" x="151.855469"/>
     <use xlink:href="#DejaVuSans-61" x="213.378906"/>
     <use xlink:href="#DejaVuSans-6e" x="274.658203"/>
     <use xlink:href="#DejaVuSans-73" x="338.037109"/>
    </g>
    <!-- ARI -->
    <g transform="translate(388.716809 127.602574) scale(0.1 -0.1)">
     <defs>
      <path id="DejaVuSans-41" d="M 2188 4044 
L 1331 1722 
L 3047 1722 
L 2188 4044 
z
M 1831 4666 
L 2547 4666 
L 4325 0 
L 3669 0 
L 3244 1197 
L 1141 1197 
L 716 0 
L 50 0 
L 1831 4666 
z
" transform="scale(0.015625)"/>
      <path id="DejaVuSans-52" d="M 2841 2188 
Q 3044 2119 3236 1894 
Q 3428 1669 3622 1275 
L 4263 0 
L 3584 0 
L 2988 1197 
Q 2756 1666 2539 1819 
Q 2322 1972 1947 1972 
L 1259 1972 
L 1259 0 
L 628 0 
L 628 4666 
L 2053 4666 
Q 2853 4666 3247 4331 
Q 3641 3997 3641 3322 
Q 3641 2881 3436 2590 
Q 3231 2300 2841 2188 
z
M 1259 4147 
L 1259 2491 
L 2053 2491 
Q 2509 2491 2742 2702 
Q 2975 2913 2975 3322 
Q 2975 3731 2742 3939 
Q 2509 4147 2053 4147 
L 1259 4147 
z
" transform="scale(0.015625)"/>
     </defs>
     <use xlink:href="#DejaVuSans-41"/>
     <use xlink:href="#DejaVuSans-52" x="68.408203"/>
     <use xlink:href="#DejaVuSans-49" x="137.890625"/>
    </g>
   </g>
   <g id="text_16">
    <!-- Silhouette -->
    <g transform="translate(433.983272 116.404761) scale(0.1 -0.1)">
     <defs>
      <path id="DejaVuSans-53" d="M 3425 4513 
L 3425 3897 
Q 3066 4069 2747 4153 
Q 2428 4238 2131 4238 
Q 1616 4238 1336 4038 
Q 1056 3838 1056 3469 
Q 1056 3159 1242 3001 
Q 1428 2844 1947 2747 
L 2328 2669 
Q 3034 2534 3370 2195 
Q 3706 1856 3706 1288 
Q 3706 609 3251 259 
Q 2797 -91 1919 -91 
Q 1588 -91 1214 -16 
Q 841 59 441 206 
L 441 856 
Q 825 641 1194 531 
Q 1563 422 1919 422 
Q 2459 422 2753 634 
Q 3047 847 3047 1241 
Q 3047 1584 2836 1778 
Q 2625 1972 2144 2069 
L 1759 2144 
Q 1053 2284 737 2584 
Q 422 2884 422 3419 
Q 422 4038 858 4394 
Q 1294 4750 2059 4750 
Q 2388 4750 2728 4690 
Q 3069 4631 3425 4513 
z
" transform="scale(0.015625)"/>
      <path id="DejaVuSans-69" d="M 603 3500 
L 1178 3500 
L 1178 0 
L 603 0 
L 603 3500 
z
M 603 4863 
L 1178 4863 
L 1178 4134 
L 603 4134 
L 603 4863 
z
" transform="scale(0.015625)"/>
      <path id="DejaVuSans-68" d="M 3513 2113 
L 3513 0 
L 2938 0 
L 2938 2094 
Q 2938 2591 2744 2837 
Q 2550 3084 2163 3084 
Q 1697 3084 1428 2787 
Q 1159 2491 1159 1978 
L 1159 0 
L 581 0 
L 581 4863 
L 1159 4863 
L 1159 2956 
Q 1366 3272 1645 3428 
Q 1925 3584 2291 3584 
Q 2894 3584 3203 3211 
Q 3513 2838 3513 2113 
z
" transform="scale(0.015625)"/>
      <path id="DejaVuSans-75" d="M 544 1381 
L 544 3500 
L 1119 3500 
L 1119 1403 
Q 1119 906 1312 657 
Q 1506 409 1894 409 
Q 2359 409 2629 706 
Q 2900 1003 2900 1516 
L 2900 3500 
L 3475 3500 
L 3475 0 
L 2900 0 
L 2900 538 
Q 2691 219 2414 64 
Q 2138 -91 1772 -91 
Q 1169 -91 856 284 
Q 544 659 544 1381 
z
M 1991 3584 
L 1991 3584 
z
" transform="scale(0.015625)"/>
     </defs>
     <use xlink:href="#DejaVuSans-53"/>
     <use xlink:href="#DejaVuSans-69" x="63.476562"/>
     <use xlink:href="#DejaVuSans-6c" x="91.259766"/>
     <use xlink:href="#DejaVuSans-68" x="119.042969"/>
     <use xlink:href="#DejaVuSans-6f" x="182.421875"/>
     <use xlink:href="#DejaVuSans-75" x="243.603516"/>
     <use xlink:href="#DejaVuSans-65" x="306.982422"/>
     <use xlink:href="#DejaVuSans-74" x="368.505859"/>
     <use xlink:href="#DejaVuSans-74" x="407.714844"/>
     <use xlink:href="#DejaVuSans-65" x="446.923828"/>
    </g>
    <!-- label -->
    <g transform="translate(447.312959 127.602574) scale(0.1 -0.1)">
     <use xlink:href="#DejaVuSans-6c"/>
     <use xlink:href="#DejaVuSans-61" x="27.783203"/>
     <use xlink:href="#DejaVuSans-62" x="89.0625"/>
     <use xlink:href="#DejaVuSans-65" x="152.539062"/>
     <use xlink:href="#DejaVuSans-6c" x="214.0625"/>
    </g>
   </g>
   <g id="text_17">
    <!-- cLISI -->
    <g transform="translate(510.06614 122.003668) scale(0.1 -0.1)">
     <defs>
      <path id="DejaVuSans-63" d="M 3122 3366 
L 3122 2828 
Q 2878 2963 2633 3030 
Q 2388 3097 2138 3097 
Q 1578 3097 1268 2742 
Q 959 2388 959 1747 
Q 959 1106 1268 751 
Q 1578 397 2138 397 
Q 2388 397 2633 464 
Q 2878 531 3122 666 
L 3122 134 
Q 2881 22 2623 -34 
Q 2366 -91 2075 -91 
Q 1284 -91 818 406 
Q 353 903 353 1747 
Q 353 2603 823 3093 
Q 1294 3584 2113 3584 
Q 2378 3584 2631 3529 
Q 2884 3475 3122 3366 
z
" transform="scale(0.015625)"/>
      <path id="DejaVuSans-4c" d="M 628 4666 
L 1259 4666 
L 1259 531 
L 3531 531 
L 3531 0 
L 628 0 
L 628 4666 
z
" transform="scale(0.015625)"/>
     </defs>
     <use xlink:href="#DejaVuSans-63"/>
     <use xlink:href="#DejaVuSans-4c" x="54.980469"/>
     <use xlink:href="#DejaVuSans-49" x="110.693359"/>
     <use xlink:href="#DejaVuSans-53" x="140.185547"/>
     <use xlink:href="#DejaVuSans-49" x="203.662109"/>
    </g>
   </g>
   <g id="text_18">
    <!-- Silhouette -->
    <g transform="translate(558.622447 116.404761) scale(0.1 -0.1)">
     <use xlink:href="#DejaVuSans-53"/>
     <use xlink:href="#DejaVuSans-69" x="63.476562"/>
     <use xlink:href="#DejaVuSans-6c" x="91.259766"/>
     <use xlink:href="#DejaVuSans-68" x="119.042969"/>
     <use xlink:href="#DejaVuSans-6f" x="182.421875"/>
     <use xlink:href="#DejaVuSans-75" x="243.603516"/>
     <use xlink:href="#DejaVuSans-65" x="306.982422"/>
     <use xlink:href="#DejaVuSans-74" x="368.505859"/>
     <use xlink:href="#DejaVuSans-74" x="407.714844"/>
     <use xlink:href="#DejaVuSans-65" x="446.923828"/>
    </g>
    <!-- batch -->
    <g transform="translate(569.928697 127.602574) scale(0.1 -0.1)">
     <use xlink:href="#DejaVuSans-62"/>
     <use xlink:href="#DejaVuSans-61" x="63.476562"/>
     <use xlink:href="#DejaVuSans-74" x="124.755859"/>
     <use xlink:href="#DejaVuSans-63" x="163.964844"/>
     <use xlink:href="#DejaVuSans-68" x="218.945312"/>
    </g>
   </g>
   <g id="text_19">
    <!-- iLISI -->
    <g transform="translate(636.065472 122.003668) scale(0.1 -0.1)">
     <use xlink:href="#DejaVuSans-69"/>
     <use xlink:href="#DejaVuSans-4c" x="27.783203"/>
     <use xlink:href="#DejaVuSans-49" x="83.496094"/>
     <use xlink:href="#DejaVuSans-53" x="112.988281"/>
     <use xlink:href="#DejaVuSans-49" x="176.464844"/>
    </g>
   </g>
   <g id="text_20">
    <!-- KBET -->
    <g transform="translate(695.761622 122.003668) scale(0.1 -0.1)">
     <defs>
      <path id="DejaVuSans-42" d="M 1259 2228 
L 1259 519 
L 2272 519 
Q 2781 519 3026 730 
Q 3272 941 3272 1375 
Q 3272 1813 3026 2020 
Q 2781 2228 2272 2228 
L 1259 2228 
z
M 1259 4147 
L 1259 2741 
L 2194 2741 
Q 2656 2741 2882 2914 
Q 3109 3088 3109 3444 
Q 3109 3797 2882 3972 
Q 2656 4147 2194 4147 
L 1259 4147 
z
M 628 4666 
L 2241 4666 
Q 2963 4666 3353 4366 
Q 3744 4066 3744 3513 
Q 3744 3084 3544 2831 
Q 3344 2578 2956 2516 
Q 3422 2416 3680 2098 
Q 3938 1781 3938 1306 
Q 3938 681 3513 340 
Q 3088 0 2303 0 
L 628 0 
L 628 4666 
z
" transform="scale(0.015625)"/>
      <path id="DejaVuSans-45" d="M 628 4666 
L 3578 4666 
L 3578 4134 
L 1259 4134 
L 1259 2753 
L 3481 2753 
L 3481 2222 
L 1259 2222 
L 1259 531 
L 3634 531 
L 3634 0 
L 628 0 
L 628 4666 
z
" transform="scale(0.015625)"/>
      <path id="DejaVuSans-54" d="M -19 4666 
L 3928 4666 
L 3928 4134 
L 2272 4134 
L 2272 0 
L 1638 0 
L 1638 4134 
L -19 4134 
L -19 4666 
z
" transform="scale(0.015625)"/>
     </defs>
     <use xlink:href="#DejaVuSans-4b"/>
     <use xlink:href="#DejaVuSans-42" x="65.576172"/>
     <use xlink:href="#DejaVuSans-45" x="134.179688"/>
     <use xlink:href="#DejaVuSans-54" x="197.363281"/>
    </g>
   </g>
   <g id="text_21">
    <!-- Graph -->
    <g transform="translate(755.667147 116.404761) scale(0.1 -0.1)">
     <defs>
      <path id="DejaVuSans-47" d="M 3809 666 
L 3809 1919 
L 2778 1919 
L 2778 2438 
L 4434 2438 
L 4434 434 
Q 4069 175 3628 42 
Q 3188 -91 2688 -91 
Q 1594 -91 976 548 
Q 359 1188 359 2328 
Q 359 3472 976 4111 
Q 1594 4750 2688 4750 
Q 3144 4750 3555 4637 
Q 3966 4525 4313 4306 
L 4313 3634 
Q 3963 3931 3569 4081 
Q 3175 4231 2741 4231 
Q 1884 4231 1454 3753 
Q 1025 3275 1025 2328 
Q 1025 1384 1454 906 
Q 1884 428 2741 428 
Q 3075 428 3337 486 
Q 3600 544 3809 666 
z
" transform="scale(0.015625)"/>
      <path id="DejaVuSans-72" d="M 2631 2963 
Q 2534 3019 2420 3045 
Q 2306 3072 2169 3072 
Q 1681 3072 1420 2755 
Q 1159 2438 1159 1844 
L 1159 0 
L 581 0 
L 581 3500 
L 1159 3500 
L 1159 2956 
Q 1341 3275 1631 3429 
Q 1922 3584 2338 3584 
Q 2397 3584 2469 3576 
Q 2541 3569 2628 3553 
L 2631 2963 
z
" transform="scale(0.015625)"/>
      <path id="DejaVuSans-70" d="M 1159 525 
L 1159 -1331 
L 581 -1331 
L 581 3500 
L 1159 3500 
L 1159 2969 
Q 1341 3281 1617 3432 
Q 1894 3584 2278 3584 
Q 2916 3584 3314 3078 
Q 3713 2572 3713 1747 
Q 3713 922 3314 415 
Q 2916 -91 2278 -91 
Q 1894 -91 1617 61 
Q 1341 213 1159 525 
z
M 3116 1747 
Q 3116 2381 2855 2742 
Q 2594 3103 2138 3103 
Q 1681 3103 1420 2742 
Q 1159 2381 1159 1747 
Q 1159 1113 1420 752 
Q 1681 391 2138 391 
Q 2594 391 2855 752 
Q 3116 1113 3116 1747 
z
" transform="scale(0.015625)"/>
     </defs>
     <use xlink:href="#DejaVuSans-47"/>
     <use xlink:href="#DejaVuSans-72" x="77.490234"/>
     <use xlink:href="#DejaVuSans-61" x="118.603516"/>
     <use xlink:href="#DejaVuSans-70" x="179.882812"/>
     <use xlink:href="#DejaVuSans-68" x="243.359375"/>
    </g>
    <!-- connectivity -->
    <g transform="translate(740.414803 127.602574) scale(0.1 -0.1)">
     <defs>
      <path id="DejaVuSans-76" d="M 191 3500 
L 800 3500 
L 1894 563 
L 2988 3500 
L 3597 3500 
L 2284 0 
L 1503 0 
L 191 3500 
z
" transform="scale(0.015625)"/>
      <path id="DejaVuSans-79" d="M 2059 -325 
Q 1816 -950 1584 -1140 
Q 1353 -1331 966 -1331 
L 506 -1331 
L 506 -850 
L 844 -850 
Q 1081 -850 1212 -737 
Q 1344 -625 1503 -206 
L 1606 56 
L 191 3500 
L 800 3500 
L 1894 763 
L 2988 3500 
L 3597 3500 
L 2059 -325 
z
" transform="scale(0.015625)"/>
     </defs>
     <use xlink:href="#DejaVuSans-63"/>
     <use xlink:href="#DejaVuSans-6f" x="54.980469"/>
     <use xlink:href="#DejaVuSans-6e" x="116.162109"/>
     <use xlink:href="#DejaVuSans-6e" x="179.541016"/>
     <use xlink:href="#DejaVuSans-65" x="242.919922"/>
     <use xlink:href="#DejaVuSans-63" x="304.443359"/>
     <use xlink:href="#DejaVuSans-74" x="359.423828"/>
     <use xlink:href="#DejaVuSans-69" x="398.632812"/>
     <use xlink:href="#DejaVuSans-76" x="426.416016"/>
     <use xlink:href="#DejaVuSans-69" x="485.595703"/>
     <use xlink:href="#DejaVuSans-74" x="513.378906"/>
     <use xlink:href="#DejaVuSans-79" x="552.587891"/>
    </g>
   </g>
   <g id="text_22">
    <!-- PCR -->
    <g transform="translate(823.342985 116.404761) scale(0.1 -0.1)">
     <defs>
      <path id="DejaVuSans-50" d="M 1259 4147 
L 1259 2394 
L 2053 2394 
Q 2494 2394 2734 2622 
Q 2975 2850 2975 3272 
Q 2975 3691 2734 3919 
Q 2494 4147 2053 4147 
L 1259 4147 
z
M 628 4666 
L 2053 4666 
Q 2838 4666 3239 4311 
Q 3641 3956 3641 3272 
Q 3641 2581 3239 2228 
Q 2838 1875 2053 1875 
L 1259 1875 
L 1259 0 
L 628 0 
L 628 4666 
z
" transform="scale(0.015625)"/>
      <path id="DejaVuSans-43" d="M 4122 4306 
L 4122 3641 
Q 3803 3938 3442 4084 
Q 3081 4231 2675 4231 
Q 1875 4231 1450 3742 
Q 1025 3253 1025 2328 
Q 1025 1406 1450 917 
Q 1875 428 2675 428 
Q 3081 428 3442 575 
Q 3803 722 4122 1019 
L 4122 359 
Q 3791 134 3420 21 
Q 3050 -91 2638 -91 
Q 1578 -91 968 557 
Q 359 1206 359 2328 
Q 359 3453 968 4101 
Q 1578 4750 2638 4750 
Q 3056 4750 3426 4639 
Q 3797 4528 4122 4306 
z
" transform="scale(0.015625)"/>
     </defs>
     <use xlink:href="#DejaVuSans-50"/>
     <use xlink:href="#DejaVuSans-43" x="60.302734"/>
     <use xlink:href="#DejaVuSans-52" x="130.126953"/>
    </g>
    <!-- comparison -->
    <g transform="translate(804.128922 127.602574) scale(0.1 -0.1)">
     <defs>
      <path id="DejaVuSans-6d" d="M 3328 2828 
Q 3544 3216 3844 3400 
Q 4144 3584 4550 3584 
Q 5097 3584 5394 3201 
Q 5691 2819 5691 2113 
L 5691 0 
L 5113 0 
L 5113 2094 
Q 5113 2597 4934 2840 
Q 4756 3084 4391 3084 
Q 3944 3084 3684 2787 
Q 3425 2491 3425 1978 
L 3425 0 
L 2847 0 
L 2847 2094 
Q 2847 2600 2669 2842 
Q 2491 3084 2119 3084 
Q 1678 3084 1418 2786 
Q 1159 2488 1159 1978 
L 1159 0 
L 581 0 
L 581 3500 
L 1159 3500 
L 1159 2956 
Q 1356 3278 1631 3431 
Q 1906 3584 2284 3584 
Q 2666 3584 2933 3390 
Q 3200 3197 3328 2828 
z
" transform="scale(0.015625)"/>
     </defs>
     <use xlink:href="#DejaVuSans-63"/>
     <use xlink:href="#DejaVuSans-6f" x="54.980469"/>
     <use xlink:href="#DejaVuSans-6d" x="116.162109"/>
     <use xlink:href="#DejaVuSans-70" x="213.574219"/>
     <use xlink:href="#DejaVuSans-61" x="277.050781"/>
     <use xlink:href="#DejaVuSans-72" x="338.330078"/>
     <use xlink:href="#DejaVuSans-69" x="379.443359"/>
     <use xlink:href="#DejaVuSans-73" x="407.226562"/>
     <use xlink:href="#DejaVuSans-6f" x="459.326172"/>
     <use xlink:href="#DejaVuSans-6e" x="520.507812"/>
    </g>
   </g>
   <g id="text_23">
    <!-- Batch -->
    <g transform="translate(881.270385 116.404761) scale(0.1 -0.1)">
     <use xlink:href="#DejaVuSans-42"/>
     <use xlink:href="#DejaVuSans-61" x="68.603516"/>
     <use xlink:href="#DejaVuSans-74" x="129.882812"/>
     <use xlink:href="#DejaVuSans-63" x="169.091797"/>
     <use xlink:href="#DejaVuSans-68" x="224.072266"/>
    </g>
    <!-- correction -->
    <g transform="translate(870.520385 127.602574) scale(0.1 -0.1)">
     <use xlink:href="#DejaVuSans-63"/>
     <use xlink:href="#DejaVuSans-6f" x="54.980469"/>
     <use xlink:href="#DejaVuSans-72" x="116.162109"/>
     <use xlink:href="#DejaVuSans-72" x="155.525391"/>
     <use xlink:href="#DejaVuSans-65" x="194.388672"/>
     <use xlink:href="#DejaVuSans-63" x="255.912109"/>
     <use xlink:href="#DejaVuSans-74" x="310.892578"/>
     <use xlink:href="#DejaVuSans-69" x="350.101562"/>
     <use xlink:href="#DejaVuSans-6f" x="377.884766"/>
     <use xlink:href="#DejaVuSans-6e" x="439.066406"/>
    </g>
   </g>
   <g id="text_24">
    <!-- Bio -->
    <g transform="translate(950.083723 116.404761) scale(0.1 -0.1)">
     <use xlink:href="#DejaVuSans-42"/>
     <use xlink:href="#DejaVuSans-69" x="68.603516"/>
     <use xlink:href="#DejaVuSans-6f" x="96.386719"/>
    </g>
    <!-- conservation -->
    <g transform="translate(925.647785 127.602574) scale(0.1 -0.1)">
     <use xlink:href="#DejaVuSans-63"/>
     <use xlink:href="#DejaVuSans-6f" x="54.980469"/>
     <use xlink:href="#DejaVuSans-6e" x="116.162109"/>
     <use xlink:href="#DejaVuSans-73" x="179.541016"/>
     <use xlink:href="#DejaVuSans-65" x="231.640625"/>
     <use xlink:href="#DejaVuSans-72" x="293.164062"/>
     <use xlink:href="#DejaVuSans-76" x="334.277344"/>
     <use xlink:href="#DejaVuSans-61" x="393.457031"/>
     <use xlink:href="#DejaVuSans-74" x="454.736328"/>
     <use xlink:href="#DejaVuSans-69" x="493.945312"/>
     <use xlink:href="#DejaVuSans-6f" x="521.728516"/>
     <use xlink:href="#DejaVuSans-6e" x="582.910156"/>
    </g>
   </g>
   <g id="text_25">
    <!-- Total -->
    <g transform="translate(1008.605654 122.003668) scale(0.1 -0.1)">
     <use xlink:href="#DejaVuSans-54"/>
     <use xlink:href="#DejaVuSans-6f" x="44.083984"/>
     <use xlink:href="#DejaVuSans-74" x="105.265625"/>
     <use xlink:href="#DejaVuSans-61" x="144.474609"/>
     <use xlink:href="#DejaVuSans-6c" x="205.753906"/>
    </g>
   </g>
   <g id="text_26">
    <!-- Aggregate score -->
    <g transform="translate(916.877473 81.466654) scale(0.1 -0.1)">
     <defs>
      <path id="DejaVuSans-67" d="M 2906 1791 
Q 2906 2416 2648 2759 
Q 2391 3103 1925 3103 
Q 1463 3103 1205 2759 
Q 947 2416 947 1791 
Q 947 1169 1205 825 
Q 1463 481 1925 481 
Q 2391 481 2648 825 
Q 2906 1169 2906 1791 
z
M 3481 434 
Q 3481 -459 3084 -895 
Q 2688 -1331 1869 -1331 
Q 1566 -1331 1297 -1286 
Q 1028 -1241 775 -1147 
L 775 -588 
Q 1028 -725 1275 -790 
Q 1522 -856 1778 -856 
Q 2344 -856 2625 -561 
Q 2906 -266 2906 331 
L 2906 616 
Q 2728 306 2450 153 
Q 2172 0 1784 0 
Q 1141 0 747 490 
Q 353 981 353 1791 
Q 353 2603 747 3093 
Q 1141 3584 1784 3584 
Q 2172 3584 2450 3431 
Q 2728 3278 2906 2969 
L 2906 3500 
L 3481 3500 
L 3481 434 
z
" transform="scale(0.015625)"/>
      <path id="DejaVuSans-20" transform="scale(0.015625)"/>
     </defs>
     <use xlink:href="#DejaVuSans-41"/>
     <use xlink:href="#DejaVuSans-67" x="68.408203"/>
     <use xlink:href="#DejaVuSans-67" x="131.884766"/>
     <use xlink:href="#DejaVuSans-72" x="195.361328"/>
     <use xlink:href="#DejaVuSans-65" x="234.224609"/>
     <use xlink:href="#DejaVuSans-67" x="295.748047"/>
     <use xlink:href="#DejaVuSans-61" x="359.224609"/>
     <use xlink:href="#DejaVuSans-74" x="420.503906"/>
     <use xlink:href="#DejaVuSans-65" x="459.712891"/>
     <use xlink:href="#DejaVuSans-20" x="521.236328"/>
     <use xlink:href="#DejaVuSans-73" x="553.023438"/>
     <use xlink:href="#DejaVuSans-63" x="605.123047"/>
     <use xlink:href="#DejaVuSans-6f" x="660.103516"/>
     <use xlink:href="#DejaVuSans-72" x="721.285156"/>
     <use xlink:href="#DejaVuSans-65" x="760.148438"/>
    </g>
   </g>
   <g id="text_27">
    <!-- Batch correction -->
    <g transform="translate(667.599903 81.466654) scale(0.1 -0.1)">
     <use xlink:href="#DejaVuSans-42"/>
     <use xlink:href="#DejaVuSans-61" x="68.603516"/>
     <use xlink:href="#DejaVuSans-74" x="129.882812"/>
     <use xlink:href="#DejaVuSans-63" x="169.091797"/>
     <use xlink:href="#DejaVuSans-68" x="224.072266"/>
     <use xlink:href="#DejaVuSans-20" x="287.451172"/>
     <use xlink:href="#DejaVuSans-63" x="319.238281"/>
     <use xlink:href="#DejaVuSans-6f" x="374.21875"/>
     <use xlink:href="#DejaVuSans-72" x="435.400391"/>
     <use xlink:href="#DejaVuSans-72" x="474.763672"/>
     <use xlink:href="#DejaVuSans-65" x="513.626953"/>
     <use xlink:href="#DejaVuSans-63" x="575.150391"/>
     <use xlink:href="#DejaVuSans-74" x="630.130859"/>
     <use xlink:href="#DejaVuSans-69" x="669.339844"/>
     <use xlink:href="#DejaVuSans-6f" x="697.123047"/>
     <use xlink:href="#DejaVuSans-6e" x="758.304688"/>
    </g>
   </g>
   <g id="text_28">
    <!-- Bio conservation -->
    <g transform="translate(355.303528 81.466654) scale(0.1 -0.1)">
     <use xlink:href="#DejaVuSans-42"/>
     <use xlink:href="#DejaVuSans-69" x="68.603516"/>
     <use xlink:href="#DejaVuSans-6f" x="96.386719"/>
     <use xlink:href="#DejaVuSans-20" x="157.568359"/>
     <use xlink:href="#DejaVuSans-63" x="189.355469"/>
     <use xlink:href="#DejaVuSans-6f" x="244.335938"/>
     <use xlink:href="#DejaVuSans-6e" x="305.517578"/>
     <use xlink:href="#DejaVuSans-73" x="368.896484"/>
     <use xlink:href="#DejaVuSans-65" x="420.996094"/>
     <use xlink:href="#DejaVuSans-72" x="482.519531"/>
     <use xlink:href="#DejaVuSans-76" x="523.632812"/>
     <use xlink:href="#DejaVuSans-61" x="582.8125"/>
     <use xlink:href="#DejaVuSans-74" x="644.091797"/>
     <use xlink:href="#DejaVuSans-69" x="683.300781"/>
     <use xlink:href="#DejaVuSans-6f" x="711.083984"/>
     <use xlink:href="#DejaVuSans-6e" x="772.265625"/>
    </g>
   </g>
  </g>
  <g id="axes_2">
   <g id="patch_49">
    <path d="M 865.967047 194.804956 
L 896.114784 194.804956 
L 896.114784 162.6768 
L 865.967047 162.6768 
z
" clip-path="url(#p7258cbd3dc)" style="fill: #3eb3c4"/>
   </g>
   <g id="text_29">
    <!-- 0.51 -->
    <g transform="translate(872.365359 181.500253) scale(0.1 -0.1)">
     <use xlink:href="#DejaVuSans-30"/>
     <use xlink:href="#DejaVuSans-2e" x="63.623047"/>
     <use xlink:href="#DejaVuSans-35" x="95.410156"/>
     <use xlink:href="#DejaVuSans-31" x="159.033203"/>
    </g>
   </g>
  </g>
  <g id="axes_3">
   <g id="patch_50">
    <path d="M 928.286635 194.804956 
L 959.955771 194.804956 
L 959.955771 162.6768 
L 928.286635 162.6768 
z
" clip-path="url(#p77a5cd7212)" style="fill: #37acc3"/>
   </g>
   <g id="text_30">
    <!-- 0.53 -->
    <g transform="translate(936.206346 181.500253) scale(0.1 -0.1)">
     <defs>
      <path id="DejaVuSans-33" d="M 2597 2516 
Q 3050 2419 3304 2112 
Q 3559 1806 3559 1356 
Q 3559 666 3084 287 
Q 2609 -91 1734 -91 
Q 1441 -91 1130 -33 
Q 819 25 488 141 
L 488 750 
Q 750 597 1062 519 
Q 1375 441 1716 441 
Q 2309 441 2620 675 
Q 2931 909 2931 1356 
Q 2931 1769 2642 2001 
Q 2353 2234 1838 2234 
L 1294 2234 
L 1294 2753 
L 1863 2753 
Q 2328 2753 2575 2939 
Q 2822 3125 2822 3475 
Q 2822 3834 2567 4026 
Q 2313 4219 1838 4219 
Q 1578 4219 1281 4162 
Q 984 4106 628 3988 
L 628 4550 
Q 988 4650 1302 4700 
Q 1616 4750 1894 4750 
Q 2613 4750 3031 4423 
Q 3450 4097 3450 3541 
Q 3450 3153 3228 2886 
Q 3006 2619 2597 2516 
z
" transform="scale(0.015625)"/>
     </defs>
     <use xlink:href="#DejaVuSans-30"/>
     <use xlink:href="#DejaVuSans-2e" x="63.623047"/>
     <use xlink:href="#DejaVuSans-35" x="95.410156"/>
     <use xlink:href="#DejaVuSans-33" x="159.033203"/>
    </g>
   </g>
  </g>
  <g id="axes_4">
   <g id="patch_51">
    <path d="M 990.606222 194.804956 
L 1021.666799 194.804956 
L 1021.666799 162.6768 
L 990.606222 162.6768 
z
" clip-path="url(#pc4e03dad33)" style="fill: #3bb0c3"/>
   </g>
   <g id="text_31">
    <!-- 0.52 -->
    <g transform="translate(997.917374 181.500253) scale(0.1 -0.1)">
     <use xlink:href="#DejaVuSans-30"/>
     <use xlink:href="#DejaVuSans-2e" x="63.623047"/>
     <use xlink:href="#DejaVuSans-35" x="95.410156"/>
     <use xlink:href="#DejaVuSans-32" x="159.033203"/>
    </g>
   </g>
  </g>
 </g>
 <defs>
  <clipPath id="p38aeff107a">
   <rect x="146.25" y="28.512" width="906.75" height="182.952"/>
  </clipPath>
  <clipPath id="p7258cbd3dc">
   <rect x="864.483247" y="160.891902" width="62.319588" height="35.697951"/>
  </clipPath>
  <clipPath id="p77a5cd7212">
   <rect x="926.802835" y="160.891902" width="62.319588" height="35.697951"/>
  </clipPath>
  <clipPath id="pc4e03dad33">
   <rect x="989.122423" y="160.891902" width="62.319588" height="35.697951"/>
  </clipPath>
 </defs>
</svg>
